<svg width="27" height="33" viewBox="0 0 27 33" fill="none" xmlns="http://www.w3.org/2000/svg">
<path d="M22.5511 17.5493C22.5841 15.0018 23.9599 12.5914 26.1425 11.2571C24.7656 9.30171 22.4594 8.06193 20.06 7.98728C17.5008 7.72017 15.0198 9.51004 13.7157 9.51004C12.3864 9.51004 10.3785 8.0138 8.21635 8.05804C5.39809 8.14858 2.77077 9.74188 1.39963 12.1919C-1.54778 17.2663 0.65072 24.7238 3.47409 28.8255C4.88669 30.834 6.53761 33.0775 8.6978 32.9979C10.8117 32.9108 11.6012 31.6576 14.1528 31.6576C16.6807 31.6576 17.4215 32.9979 19.6255 32.9474C21.8938 32.9107 23.3229 30.9299 24.6859 28.9024C25.7009 27.4713 26.4819 25.8896 27 24.216C24.3343 23.0948 22.5542 20.4273 22.5511 17.5493Z" fill="white"/>
<path d="M18.388 5.28981C19.6248 3.81346 20.2341 1.91586 20.0866 0C18.1971 0.197341 16.4517 1.09533 15.1982 2.51503C13.9725 3.90216 13.3346 5.76637 13.4552 7.609C15.3454 7.62836 17.2036 6.75471 18.388 5.28981Z" fill="white"/>
</svg>
